<?xml version="1.0" standalone="no"?>
<!DOCTYPE svg PUBLIC "-//W3C//DTD SVG 20010904//EN"
 "http://www.w3.org/TR/2001/REC-SVG-20010904/DTD/svg10.dtd">
<svg version="1.0" xmlns="http://www.w3.org/2000/svg"
 width="1200.000000pt" height="1200.000000pt" viewBox="0 0 1200.000000 1200.000000"
 preserveAspectRatio="xMidYMid meet">
<metadata>
Created by potrace 1.14, written by Peter Selinger 2001-2017
</metadata>
<g transform="translate(0.000000,1200.000000) scale(0.100000,-0.100000)"
fill="#000000" stroke="none">
<path d="M5738 10945 c-1 -2 -50 -6 -108 -10 -58 -3 -116 -8 -130 -10 -14 -2
-54 -7 -90 -10 -138 -13 -408 -63 -575 -105 -22 -6 -51 -13 -64 -16 -53 -11
-244 -69 -371 -111 -469 -158 -982 -428 -1360 -717 -94 -71 -194 -150 -200
-156 -3 -3 -36 -32 -75 -65 -379 -322 -707 -712 -1012 -1200 -97 -155 -268
-499 -346 -695 -67 -170 -142 -384 -153 -438 -2 -13 -11 -42 -19 -65 -13 -39
-41 -146 -50 -192 -2 -11 -7 -31 -10 -45 -6 -24 -8 -35 -20 -90 -11 -48 -63
-366 -70 -425 -24 -204 -30 -318 -29 -595 0 -151 3 -313 7 -360 6 -82 33 -324
41 -365 2 -11 7 -40 10 -65 14 -99 59 -320 91 -440 31 -117 30 -113 50 -180 8
-30 17 -62 19 -70 9 -29 74 -216 104 -295 73 -195 205 -472 320 -675 90 -158
289 -460 347 -526 6 -7 19 -24 30 -40 119 -165 438 -510 626 -674 41 -36 76
-68 79 -71 3 -3 55 -45 115 -93 144 -115 131 -105 203 -156 34 -25 82 -59 105
-76 49 -36 274 -175 367 -228 79 -44 378 -194 440 -220 25 -10 74 -31 110 -46
73 -31 182 -74 190 -75 3 -1 55 -17 115 -37 145 -48 355 -109 425 -123 8 -2
33 -8 55 -14 22 -5 56 -13 75 -16 19 -3 42 -8 50 -10 8 -2 31 -7 50 -10 19 -3
71 -12 115 -20 112 -20 138 -23 300 -40 153 -15 272 -20 500 -19 227 0 490 10
505 19 3 2 39 6 79 10 41 4 84 9 95 11 12 2 39 6 61 9 79 10 101 13 165 26 36
7 112 23 170 36 58 13 116 26 130 29 57 11 393 113 465 141 22 8 58 22 80 30
22 9 49 19 60 24 11 5 45 18 75 30 95 36 384 175 520 249 314 173 684 439 948
685 52 48 235 232 323 324 105 110 469 580 469 606 0 3 23 40 51 82 50 76 63
99 147 248 54 96 142 274 184 370 16 39 36 84 44 100 28 63 135 350 139 375 0
3 11 37 23 75 12 39 24 81 27 93 2 12 6 26 9 30 3 5 7 19 10 33 3 13 21 87 40
164 19 77 47 210 61 295 34 203 33 194 41 275 3 39 8 77 9 86 19 102 27 673
12 859 -11 137 -46 413 -62 490 -3 14 -8 40 -11 59 -3 18 -7 41 -9 50 -5 21
-35 161 -40 181 -31 138 -123 441 -172 565 -8 22 -19 49 -23 60 -57 149 -98
242 -181 410 -254 516 -567 948 -977 1349 -165 161 -213 204 -327 297 -295
241 -606 442 -942 607 -284 139 -494 221 -803 312 -41 12 -86 26 -100 31 -74
25 -475 105 -625 125 -22 3 -56 7 -75 9 -19 3 -64 7 -100 10 -36 3 -85 8 -110
11 -52 6 -636 14 -642 9z m632 -159 c98 -11 176 -19 200 -21 24 -2 103 -12
165 -21 25 -4 98 -16 215 -38 14 -2 48 -10 75 -16 28 -6 57 -13 65 -15 19 -4
99 -24 125 -31 11 -3 25 -6 30 -8 6 -1 37 -10 70 -20 33 -10 67 -20 75 -21 19
-4 205 -66 285 -95 213 -77 524 -225 755 -360 106 -62 384 -247 445 -297 6 -5
28 -22 50 -38 22 -17 42 -32 45 -35 3 -3 46 -39 95 -79 587 -479 1090 -1162
1375 -1866 18 -44 38 -93 45 -110 14 -33 69 -196 108 -320 37 -114 116 -442
131 -540 12 -72 17 -102 21 -125 5 -25 8 -45 20 -155 4 -33 8 -71 11 -84 25
-166 25 -789 -1 -986 -2 -16 -7 -52 -10 -80 -7 -63 -34 -242 -40 -275 -3 -14
-8 -38 -11 -55 -3 -16 -14 -70 -25 -120 -12 -49 -23 -101 -25 -115 -14 -70
-132 -454 -165 -535 -7 -17 -13 -34 -15 -40 -1 -5 -28 -71 -59 -145 -73 -172
-199 -426 -273 -550 -12 -19 -29 -48 -38 -64 -35 -63 -186 -287 -259 -386
-258 -348 -586 -681 -930 -944 -77 -59 -147 -113 -155 -119 -8 -7 -28 -18 -43
-26 -15 -8 -27 -18 -27 -23 0 -4 -7 -8 -15 -8 -8 0 -15 -4 -15 -10 0 -5 -4
-10 -9 -10 -5 0 -43 -21 -83 -47 -93 -61 -102 -66 -163 -101 -27 -16 -68 -39
-90 -52 -136 -78 -494 -245 -625 -290 -36 -12 -72 -26 -81 -31 -16 -8 -363
-115 -402 -124 -12 -2 -80 -18 -152 -35 -71 -16 -143 -32 -160 -34 -16 -2 -41
-7 -55 -10 -25 -5 -62 -11 -135 -22 -22 -3 -51 -7 -65 -10 -14 -2 -52 -7 -85
-10 -33 -3 -71 -7 -85 -10 -150 -25 -798 -25 -960 0 -14 3 -54 7 -90 11 -36 3
-74 8 -85 10 -11 2 -40 7 -65 10 -25 3 -55 7 -66 9 -12 2 -37 7 -55 10 -19 3
-45 8 -59 11 -14 3 -56 12 -95 20 -101 21 -105 21 -196 45 -324 85 -594 184
-884 324 -445 215 -764 429 -1150 771 -146 130 -384 383 -526 560 -119 150
-161 207 -263 363 -250 383 -448 804 -575 1217 -37 122 -99 362 -107 413 -3
20 -9 53 -14 72 -10 40 -55 336 -64 420 -21 194 -28 668 -14 865 7 88 26 267
32 302 2 10 7 43 12 73 4 30 8 57 9 60 1 3 5 25 9 50 5 25 10 54 12 65 2 11 9
47 15 80 5 33 26 121 46 195 19 74 36 143 38 152 6 27 100 307 130 384 123
319 281 625 473 919 388 592 909 1095 1512 1462 180 109 428 238 580 302 41
17 89 38 105 45 17 8 55 23 85 34 30 11 75 27 99 37 41 15 146 49 296 95 142
43 491 121 610 135 28 4 57 8 65 10 8 2 47 7 85 11 39 3 77 8 86 9 9 2 61 6
115 10 55 4 100 9 102 10 5 5 593 -3 642 -9z"/>
<path d="M5748 10495 c-2 -2 -44 -6 -93 -10 -50 -3 -101 -8 -115 -10 -14 -2
-50 -7 -80 -10 -70 -8 -220 -30 -270 -40 -49 -10 -75 -15 -110 -20 -19 -3
-102 -23 -185 -45 -82 -22 -158 -42 -167 -44 -68 -18 -275 -91 -448 -159 -129
-51 -448 -211 -590 -297 -93 -55 -292 -185 -323 -210 -34 -27 -127 -99 -162
-125 -144 -107 -411 -359 -572 -540 -181 -202 -410 -523 -542 -755 -97 -173
-271 -539 -271 -572 0 -8 -4 -18 -9 -24 -17 -19 -148 -415 -166 -504 -2 -8 -4
-15 -5 -15 -1 0 -3 -8 -5 -19 -2 -10 -9 -39 -15 -65 -11 -48 -18 -79 -26 -121
-3 -14 -7 -32 -9 -40 -3 -8 -7 -33 -10 -55 -4 -22 -8 -51 -11 -65 -2 -14 -7
-41 -10 -60 -2 -19 -7 -46 -9 -60 -2 -14 -7 -52 -11 -85 -3 -33 -8 -67 -9 -76
-26 -136 -26 -726 -1 -924 2 -16 7 -57 11 -90 10 -91 15 -125 25 -180 6 -27
12 -68 16 -90 10 -70 62 -297 89 -390 15 -49 29 -99 31 -110 5 -27 46 -146 99
-285 281 -741 769 -1412 1384 -1904 42 -34 90 -71 106 -83 28 -20 141 -102
192 -140 62 -44 212 -136 338 -205 106 -59 477 -238 493 -238 4 0 40 -14 81
-30 80 -33 277 -98 376 -125 171 -47 335 -85 422 -99 54 -9 107 -18 118 -20
21 -4 74 -11 160 -22 28 -3 61 -7 75 -9 91 -13 259 -19 480 -19 227 0 317 4
440 19 203 25 238 30 405 61 262 48 689 179 910 279 218 99 487 240 610 320
119 77 195 128 261 177 90 67 223 170 249 194 12 11 54 48 95 84 309 268 624
646 851 1020 35 58 72 119 82 135 25 41 176 347 206 415 59 140 143 361 156
417 3 10 16 56 31 103 14 47 27 92 29 100 2 8 11 44 20 80 9 36 19 76 21 90 3
14 7 33 10 42 3 9 6 25 8 35 2 10 7 36 11 58 5 22 10 47 11 55 2 8 6 35 9 60
3 25 8 52 10 60 5 20 12 71 20 145 4 33 8 71 11 85 25 153 24 765 -1 921 -2
13 -6 51 -10 84 -42 396 -177 886 -353 1280 -48 109 -155 322 -189 380 -152
256 -256 409 -410 605 -187 238 -499 549 -719 715 -43 33 -90 70 -104 83 -14
12 -28 22 -31 22 -3 0 -17 9 -30 20 -12 12 -39 31 -59 43 -19 12 -43 29 -53
38 -9 9 -30 22 -45 30 -15 8 -52 30 -82 50 -131 85 -404 231 -574 306 -161 71
-429 167 -576 207 -30 8 -82 23 -115 32 -33 9 -69 18 -80 20 -21 4 -127 27
-135 29 -5 2 -32 7 -160 30 -41 8 -97 17 -125 20 -27 3 -66 8 -85 10 -19 3
-60 7 -90 10 -30 4 -73 8 -95 11 -44 6 -602 14 -607 9z"/>
</g>
</svg>
